<svg preserveAspectRatio="xMidYMid meet" data-bbox="0 0 269.7 251.04" viewBox="0 0 269.7 251.04" xmlns="http://www.w3.org/2000/svg" data-type="color" role="presentation" aria-hidden="true" aria-label="">
    <g>
        <path d="M134.85 251.04c-52.93 0-96-43.07-96-96s43.07-96 96-96 96 43.07 96 96-43.07 96-96 96Zm0-180c-46.32 0-84 37.68-84 84s37.68 84 84 84 84-37.68 84-84-37.68-84-84-84Z" fill="#192b56" data-color="1"></path>
        <path d="M134.85 161.04c-3.31 0-6-2.69-6-6v-101c0-3.31 2.69-6 6-6s6 2.69 6 6v101c0 3.31-2.69 6-6 6Z" fill="#3cbcae" data-color="2"></path>
        <path fill="#28b89b" d="m123.39 54.04 11.46-34.84 11.46 34.84h-22.92z" data-color="3"></path>
        <path d="M154.6 60.04h-39.49L134.85 0l19.75 60.04Zm-22.92-12h6.34l-3.17-9.63-3.17 9.63Z" fill="#28b89b" data-color="3"></path>
        <g>
            <path fill="#e42d91" d="m134.85 155.28 88.04 50.84" data-color="4"></path>
            <path d="M222.89 212.12c-1.02 0-2.05-.26-2.99-.8l-88.05-50.83a6.012 6.012 0 0 1-2.2-8.2 6.012 6.012 0 0 1 8.2-2.2l88.05 50.83a6.012 6.012 0 0 1 2.2 8.2c-1.11 1.92-3.13 3-5.2 3Z" fill="#eb108c" data-color="5"></path>
            <path fill="#e42d91" d="m228.62 196.19 24.44 27.34-35.89-7.49 11.45-19.85z" data-color="4"></path>
            <path d="m269.7 233.14-61.87-12.92 19.75-34.2 42.12 47.12Zm-43.19-21.28 9.93 2.07-6.76-7.56-3.17 5.49Z" fill="#eb108c" data-color="5"></path>
        </g>
        <g>
            <path fill="#074973" d="M134.85 155.28 46.8 206.12" data-color="6"></path>
            <path d="M46.81 212.12c-2.07 0-4.09-1.08-5.2-3-1.66-2.87-.67-6.54 2.2-8.2l88.05-50.83c2.87-1.66 6.54-.67 8.2 2.2 1.66 2.87.67 6.54-2.2 8.2l-88.05 50.83c-.94.55-1.98.8-2.99.8Z" fill="#89288b" data-color="7"></path>
            <path fill="#89288b" d="m52.53 216.04-35.9 7.49 24.44-27.34 11.46 19.85z" data-color="7"></path>
            <path d="m0 233.14 42.12-47.12 19.75 34.2L0 233.14Zm40.02-26.77-6.76 7.56 9.93-2.07-3.17-5.49Z" fill="#89288b" data-color="7"></path>
        </g>
        <path d="M89.77 239.35c-1.02 0-2.05-.26-2.99-.8-14.3-8.26-22.33-24.92-22.6-46.93-.26-20.87 6.51-44.35 19.08-66.12 12.57-21.77 29.52-39.38 47.72-49.59 19.2-10.76 37.64-12.14 51.94-3.89a6.012 6.012 0 0 1 2.2 8.2 6.01 6.01 0 0 1-8.2 2.2c-10.49-6.06-24.72-4.65-40.07 3.96-16.35 9.17-31.69 25.19-43.2 45.12s-17.71 41.23-17.48 59.97c.22 17.6 6.12 30.63 16.61 36.69a6.012 6.012 0 0 1 2.2 8.2c-1.11 1.92-3.13 3-5.2 3Z" fill="#eb108c" data-color="5"></path>
        <path d="M179.93 239.35c-2.07 0-4.09-1.08-5.2-3-1.66-2.87-.67-6.54 2.2-8.2 10.49-6.05 16.38-19.08 16.6-36.69.24-18.74-5.97-40.04-17.48-59.97s-26.85-35.96-43.2-45.12c-15.35-8.61-29.58-10.02-40.07-3.96-2.87 1.66-6.54.67-8.2-2.2-1.66-2.87-.67-6.54 2.2-8.2 14.3-8.25 32.75-6.88 51.94 3.89 18.2 10.21 35.15 27.82 47.72 49.59s19.35 45.26 19.09 66.12c-.28 22.01-8.31 38.67-22.6 46.93-.94.55-1.98.8-2.99.8Z" fill="#89288b" data-color="7"></path>
        <path d="M134.85 214.85c-25.14 0-48.87-5.87-66.81-16.53-18.92-11.24-29.34-26.53-29.34-43.04 0-3.31 2.69-6 6-6s6 2.69 6 6c0 12.11 8.33 23.73 23.47 32.72 16.11 9.58 37.66 14.85 60.68 14.85s44.56-5.27 60.68-14.85c15.13-8.99 23.47-20.62 23.47-32.72 0-3.31 2.69-6 6-6s6 2.69 6 6c0 16.51-10.42 31.8-29.34 43.04-17.94 10.66-41.67 16.53-66.81 16.53Z" fill="#3cbcae" data-color="2"></path>
        <path d="M89.77 239.35c-1.02 0-2.05-.26-2.99-.8-14.3-8.26-22.33-24.92-22.6-46.93-.26-20.87 6.51-44.35 19.08-66.12a6.01 6.01 0 0 1 8.2-2.2 6.012 6.012 0 0 1 2.2 8.2c-11.51 19.93-17.71 41.23-17.48 59.97.22 17.6 6.12 30.63 16.61 36.69a6.012 6.012 0 0 1 2.2 8.2c-1.11 1.92-3.13 3-5.2 3Z" fill="#eb108c" data-color="5"></path>
    </g>
</svg>